# 3ds Max Wavefront OBJ Exporter v0.99 - (c)2007 guruware
# File Created: 27.10.2025 11:56:36

mtllib cheese.mtl

#
# object Cylinder001
#

v  0.0000 0.0001 0.0930
v  24.1367 0.0001 -4.1629
v  24.5091 0.0001 0.0930
v  24.1367 0.0001 4.3490
v  23.0310 0.0001 -8.2896
v  43.9287 0.0001 -7.6528
v  44.6064 0.0001 0.0930
v  23.0310 0.0001 8.4756
v  43.9287 0.0001 7.8389
v  21.2255 0.0001 -12.1615
v  41.9163 0.0001 -15.1633
v  45.8295 0.2748 -7.9880
v  46.5365 0.2748 0.0930
v  21.2255 0.0001 12.3476
v  41.9163 0.0001 15.3493
v  45.8295 0.2748 8.1740
v  18.7751 0.0001 -15.6611
v  38.6303 0.0001 -22.2102
v  43.7300 0.2748 -15.8234
v  47.1872 1.0988 -8.2274
v  47.9152 1.0988 0.0930
v  18.7750 0.0001 15.8471
v  38.6303 0.0001 22.3962
v  43.7300 0.2748 16.0095
v  47.1872 1.0988 8.4134
v  15.7541 0.0001 -18.6820
v  34.1705 0.0001 -28.5794
v  40.3018 0.2748 -23.1752
v  45.0256 1.0988 -16.2949
v  48.0019 2.4722 -8.3710
v  48.7424 2.4722 0.0930
v  15.7541 0.0001 18.8680
v  34.1705 0.0001 28.7655
v  40.3018 0.2748 23.3613
v  45.0255 1.0988 16.4810
v  48.0019 2.4722 8.5571
v  12.2546 0.0001 -21.1324
v  28.6725 0.0001 -34.0774
v  35.6491 0.2748 -29.8201
v  41.4958 1.0988 -23.8646
v  45.8029 2.4722 -16.5778
v  48.2734 4.3950 -8.4189
v  49.0181 4.3950 0.0930
v  12.2545 0.0001 21.3185
v  28.6724 0.0001 34.2635
v  35.6490 0.2748 30.0061
v  41.4958 1.0988 24.0506
v  45.8028 2.4722 16.7639
v  48.2734 4.3950 8.6050
v  8.3826 0.0001 -22.9379
v  22.3032 0.0001 -38.5372
v  29.9131 0.2748 -35.5560
v  36.7052 1.0988 -30.7062
v  42.2121 2.4722 -24.2781
v  46.0620 4.3950 -16.6721
v  48.2734 26.8155 -8.4189
v  49.0181 26.8155 0.0930
v  8.3826 0.0001 23.1240
v  22.3032 0.0001 38.7233
v  29.9131 0.2748 35.7421
v  36.7052 1.0988 30.8923
v  42.2121 2.4722 24.4642
v  46.0620 4.3950 16.8582
v  48.2734 26.8155 8.6050
v  4.2560 0.0001 -24.0437
v  15.2563 0.0001 -41.8233
v  23.2683 0.2748 -40.2088
v  30.7993 1.0988 -36.6121
v  37.3388 2.4722 -31.2380
v  42.4509 4.3950 -24.4160
v  46.0620 26.8155 -16.6721
v  48.0019 28.7382 -8.3710
v  48.7424 28.7382 0.0930
v  15.2563 0.0001 42.0093
v  23.2683 0.2748 40.3948
v  30.7993 1.0988 36.7982
v  37.3388 2.4722 31.4240
v  42.4509 4.3950 24.6021
v  46.0620 26.8155 16.8582
v  48.0019 28.7382 8.5571
v  0.0000 0.0001 -24.4160
v  7.7459 0.0001 -43.8357
v  15.9165 0.2748 -43.6370
v  23.9576 1.0988 -41.4027
v  31.3310 2.4722 -37.2458
v  37.5501 4.3950 -31.4152
v  42.4509 26.8155 -24.4160
v  45.8029 28.7382 -16.5778
v  47.1872 30.1117 -8.2274
v  47.9152 30.1117 0.0930
v  15.9164 0.2748 43.8230
v  23.9576 1.0988 41.5888
v  16.3880 1.0988 45.1185
v  24.3712 2.4722 42.3051
v  16.6709 2.4722 45.8958
v  24.5091 4.3950 42.5439
v  16.7652 4.3950 46.1549
v  24.5091 26.8155 42.5439
v  16.7652 26.8155 46.1549
v  24.3712 28.7382 42.3051
v  16.6709 28.7382 45.8958
v  23.9576 30.1117 41.5888
v  16.3880 30.1117 45.1185
v  23.2683 30.9357 40.3948
v  15.9164 30.9357 43.8230
v  22.3032 31.2104 38.7233
v  15.2563 31.2104 42.0093
v  12.2545 31.2104 21.3185
v  8.3826 31.2104 23.1240
v  0.0000 31.2104 0.0930
v  31.3310 2.4722 37.4318
v  37.5500 4.3950 31.6013
v  42.4509 26.8155 24.6021
v  45.8028 28.7382 16.7639
v  47.1872 30.1117 8.4134
v  -4.2559 0.0001 -24.0437
v  0.0000 0.0001 -44.5134
v  8.0810 0.2748 -45.7365
v  16.3880 1.0988 -44.9325
v  24.3712 2.4722 -42.1191
v  31.5083 4.3950 -37.4570
v  37.5501 26.8155 -31.4152
v  42.2121 28.7382 -24.2781
v  45.0256 30.1117 -16.2949
v  45.8295 30.9357 -7.9880
v  46.5365 30.9357 0.0930
v  -8.3826 0.0001 23.1240
v  -12.2545 0.0001 21.3185
v  -12.2545 31.2104 21.3185
v  -8.3826 31.2104 23.1240
v  -22.3032 31.2104 38.7233
v  -15.2563 31.2104 42.0093
v  -23.2682 30.9357 40.3948
v  -15.9164 30.9357 43.8230
v  -23.9575 30.1117 41.5887
v  -16.3879 30.1117 45.1185
v  -24.3711 28.7382 42.3051
v  -16.6708 28.7382 45.8958
v  -24.5090 26.8155 42.5439
v  -16.7651 26.8155 46.1549
v  -24.5090 4.3950 42.5439
v  -16.7651 4.3950 46.1549
v  -24.3711 2.4722 42.3051
v  -16.6708 2.4722 45.8958
v  -23.9575 1.0988 41.5887
v  -16.3879 1.0988 45.1185
v  -23.2682 0.2748 40.3948
v  -15.9164 0.2748 43.8230
v  -22.3032 0.0001 38.7233
v  -15.2563 0.0001 42.0093
v  31.5082 4.3950 37.6431
v  31.5082 26.8155 37.6431
v  31.3310 28.7382 37.4318
v  30.7993 30.1117 36.7982
v  29.9131 30.9357 35.7421
v  28.6724 31.2104 34.2635
v  15.7541 31.2104 18.8680
v  37.5500 26.8155 31.6013
v  42.2121 28.7382 24.4642
v  45.0255 30.1117 16.4810
v  45.8295 30.9357 8.1740
v  -8.3825 0.0001 -22.9379
v  -7.7458 0.0001 -43.8357
v  0.0000 0.2748 -46.4435
v  8.3204 1.0988 -47.0942
v  16.6709 2.4722 -45.7098
v  24.5091 4.3950 -42.3579
v  31.5083 26.8155 -37.4570
v  37.3388 28.7382 -31.2380
v  41.4958 30.1117 -23.8646
v  43.7300 30.9357 -15.8234
v  43.9287 31.2104 -7.6528
v  44.6064 31.2104 0.0930
v  -15.7541 0.0001 18.8680
v  -15.7541 31.2104 18.8680
v  -28.6724 31.2104 34.2635
v  -29.9130 30.9357 35.7420
v  -30.7992 30.1117 36.7981
v  -31.3309 28.7382 37.4318
v  -31.5082 26.8155 37.6430
v  -31.5082 4.3950 37.6430
v  -31.3309 2.4722 37.4318
v  -30.7992 1.0988 36.7981
v  -29.9130 0.2748 35.7420
v  -28.6724 0.0001 34.2635
v  37.3388 28.7382 31.4240
v  36.7052 30.1117 30.8923
v  35.6490 30.9357 30.0061
v  34.1705 31.2104 28.7655
v  18.7750 31.2104 15.8471
v  41.4958 30.1117 24.0506
v  43.7300 30.9357 16.0095
v  43.9287 31.2104 7.8389
v  -12.2545 0.0001 -21.1324
v  -15.2562 0.0001 -41.8233
v  -8.0809 0.2748 -45.7365
v  0.0000 1.0988 -47.8221
v  8.4641 2.4722 -47.9088
v  16.7652 4.3950 -45.9689
v  24.5091 26.8155 -42.3579
v  31.3310 28.7382 -37.2458
v  36.7052 30.1117 -30.7062
v  40.3018 30.9357 -23.1752
v  41.9163 31.2104 -15.1633
v  24.1367 31.2104 -4.1629
v  24.5091 31.2104 0.0930
v  -18.7750 0.0001 15.8471
v  -18.7750 31.2104 15.8471
v  -34.1704 31.2104 28.7654
v  -35.6490 30.9357 30.0061
v  -36.7051 30.1117 30.8923
v  -37.3388 28.7382 31.4240
v  -37.5500 26.8155 31.6012
v  -37.5500 4.3950 31.6012
v  -37.3388 2.4722 31.4240
v  -36.7051 1.0988 30.8923
v  -35.6490 0.2748 30.0061
v  -34.1704 0.0001 28.7654
v  40.3018 30.9357 23.3613
v  38.6303 31.2104 22.3962
v  21.2255 31.2104 12.3476
v  41.9163 31.2104 15.3493
v  24.1367 31.2104 4.3490
v  -15.7541 0.0001 -18.6820
v  -22.3031 0.0001 -38.5372
v  -15.9164 0.2748 -43.6370
v  -8.3203 1.0988 -47.0942
v  0.0000 2.4722 -48.6493
v  8.5119 4.3950 -48.1804
v  16.7652 26.8155 -45.9689
v  24.3712 28.7382 -42.1191
v  30.7993 30.1117 -36.6121
v  35.6491 30.9357 -29.8201
v  38.6303 31.2104 -22.2102
v  23.0310 31.2104 -8.2896
v  -21.2254 0.0001 12.3475
v  -21.2254 31.2104 12.3475
v  -38.6302 31.2104 22.3962
v  -40.3018 30.9357 23.3612
v  -41.4957 30.1117 24.0506
v  -42.2121 28.7382 24.4642
v  -42.4509 26.8155 24.6020
v  -42.4509 4.3950 24.6020
v  -42.2121 2.4722 24.4642
v  -41.4957 1.0988 24.0506
v  -40.3018 0.2748 23.3612
v  -38.6302 0.0001 22.3962
v  23.0310 31.2104 8.4756
v  -18.7750 0.0001 -15.6611
v  -28.6724 0.0001 -34.0775
v  -23.2682 0.2748 -40.2088
v  -16.3879 1.0988 -44.9325
v  -8.4640 2.4722 -47.9088
v  0.0000 4.3950 -48.9251
v  8.5119 26.8155 -48.1804
v  16.6709 28.7382 -45.7098
v  23.9576 30.1117 -41.4027
v  29.9131 30.9357 -35.5560
v  34.1705 31.2104 -28.5794
v  21.2255 31.2104 -12.1615
v  -23.0309 0.0001 8.4756
v  -23.0309 31.2104 8.4756
v  -41.9162 31.2104 15.3493
v  -43.7300 30.9357 16.0094
v  -45.0255 30.1117 16.4809
v  -45.8028 28.7382 16.7639
v  -46.0619 26.8155 16.8582
v  -46.0619 4.3950 16.8582
v  -45.8028 2.4722 16.7639
v  -45.0255 1.0988 16.4809
v  -43.7300 0.2748 16.0094
v  -41.9162 0.0001 15.3493
v  -21.2254 0.0001 -12.1615
v  -34.1704 0.0001 -28.5794
v  -29.9130 0.2748 -35.5560
v  -23.9575 1.0988 -41.4027
v  -16.6708 2.4722 -45.7098
v  -8.5119 4.3950 -48.1804
v  0.0000 26.8155 -48.9251
v  8.4641 28.7382 -47.9088
v  16.3880 30.1117 -44.9325
v  23.2683 30.9357 -40.2088
v  28.6725 31.2104 -34.0774
v  18.7751 31.2104 -15.6611
v  -24.1366 0.0001 4.3490
v  -24.1366 31.2104 4.3490
v  -43.9287 31.2104 7.8388
v  -45.8295 30.9357 8.1740
v  -47.1872 30.1117 8.4134
v  -48.0018 28.7382 8.5570
v  -48.2733 26.8155 8.6049
v  -48.2733 4.3950 8.6049
v  -48.0018 2.4722 8.5570
v  -47.1872 1.0988 8.4134
v  -45.8295 0.2748 8.1740
v  -43.9287 0.0001 7.8388
v  -23.0309 0.0001 -8.2896
v  -38.6302 0.0001 -22.2102
v  -35.6490 0.2748 -29.8201
v  -30.7992 1.0988 -36.6121
v  -24.3711 2.4722 -42.1191
v  -16.7651 4.3950 -45.9689
v  -8.5119 26.8155 -48.1804
v  0.0000 28.7382 -48.6493
v  8.3204 30.1117 -47.0942
v  15.9165 30.9357 -43.6370
v  22.3032 31.2104 -38.5372
v  15.7541 31.2104 -18.6820
v  -24.5090 0.0001 0.0930
v  -24.5090 31.2104 0.0930
v  -44.6063 31.2104 0.0930
v  -46.5364 30.9357 0.0930
v  -47.9151 30.1117 0.0930
v  -48.7423 28.7382 0.0930
v  -49.0180 26.8155 0.0930
v  -49.0180 4.3950 0.0930
v  -48.7423 2.4722 0.0930
v  -47.9151 1.0988 0.0930
v  -46.5364 0.2748 0.0930
v  -44.6063 0.0001 0.0930
v  -24.1366 0.0001 -4.1629
v  -41.9162 0.0001 -15.1633
v  -40.3017 0.2748 -23.1752
v  -36.7051 1.0988 -30.7063
v  -31.3309 2.4722 -37.2458
v  -24.5090 4.3950 -42.3579
v  -16.7651 26.8155 -45.9689
v  -8.4640 28.7382 -47.9088
v  0.0000 30.1117 -47.8221
v  8.0810 30.9357 -45.7365
v  15.2563 31.2104 -41.8233
v  12.2546 31.2104 -21.1324
v  -24.1366 31.2104 -4.1629
v  -43.9287 31.2104 -7.6528
v  -45.8294 30.9357 -7.9880
v  -47.1872 30.1117 -8.2274
v  -48.0018 28.7382 -8.3710
v  -48.2733 26.8155 -8.4189
v  -48.2733 4.3950 -8.4189
v  -48.0018 2.4722 -8.3710
v  -47.1872 1.0988 -8.2274
v  -45.8294 0.2748 -7.9880
v  -43.9287 0.0001 -7.6528
v  -43.7299 0.2748 -15.8234
v  -41.4957 1.0988 -23.8646
v  -37.3387 2.4722 -31.2380
v  -31.5082 4.3950 -37.4570
v  -24.5090 26.8155 -42.3579
v  -16.6708 28.7382 -45.7098
v  -8.3203 30.1117 -47.0942
v  0.0000 30.9357 -46.4435
v  7.7459 31.2104 -43.8357
v  8.3826 31.2104 -22.9379
v  -23.0309 31.2104 -8.2896
v  -41.9162 31.2104 -15.1633
v  -43.7299 30.9357 -15.8234
v  -45.0255 30.1117 -16.2949
v  -45.8028 28.7382 -16.5779
v  -46.0619 26.8155 -16.6722
v  -46.0619 4.3950 -16.6722
v  -45.8028 2.4722 -16.5779
v  -45.0255 1.0988 -16.2949
v  -42.2121 2.4722 -24.2782
v  -37.5500 4.3950 -31.4152
v  -31.5082 26.8155 -37.4570
v  -24.3711 28.7382 -42.1191
v  -16.3879 30.1117 -44.9325
v  -8.0809 30.9357 -45.7365
v  0.0000 31.2104 -44.5134
v  4.2560 31.2104 -24.0437
v  -21.2254 31.2104 -12.1615
v  -38.6302 31.2104 -22.2102
v  -40.3017 30.9357 -23.1752
v  -41.4957 30.1117 -23.8646
v  -42.2121 28.7382 -24.2782
v  -42.4508 26.8155 -24.4160
v  -42.4508 4.3950 -24.4160
v  -37.5500 26.8155 -31.4152
v  -31.3309 28.7382 -37.2458
v  -23.9575 30.1117 -41.4027
v  -15.9164 30.9357 -43.6370
v  -7.7458 31.2104 -43.8357
v  0.0000 31.2104 -24.4160
v  -18.7750 31.2104 -15.6611
v  -34.1704 31.2104 -28.5794
v  -35.6490 30.9357 -29.8201
v  -36.7051 30.1117 -30.7063
v  -37.3387 28.7382 -31.2380
v  -30.7992 30.1117 -36.6121
v  -23.2682 30.9357 -40.2088
v  -15.2562 31.2104 -41.8233
v  -4.2559 31.2104 -24.0437
v  -15.7541 31.2104 -18.6820
v  -28.6724 31.2104 -34.0774
v  -29.9130 30.9357 -35.5560
v  -22.3031 31.2104 -38.5372
v  -8.3825 31.2104 -22.9379
v  -12.2545 31.2104 -21.1324
# 398 vertices

vn 0.0000 -1.0000 -0.0000
vn 0.0734 -0.9972 -0.0129
vn 0.0745 -0.9972 -0.0000
vn 0.0734 -0.9972 0.0129
vn 0.0700 -0.9972 -0.0255
vn 0.3380 -0.9393 -0.0596
vn 0.3432 -0.9393 -0.0000
vn 0.0700 -0.9972 0.0255
vn 0.3380 -0.9393 0.0596
vn 0.0645 -0.9972 -0.0373
vn 0.3225 -0.9393 -0.1174
vn 0.7017 -0.7016 -0.1237
vn 0.7125 -0.7016 -0.0000
vn 0.0645 -0.9972 0.0373
vn 0.3225 -0.9393 0.1174
vn 0.7017 -0.7016 0.1237
vn 0.0571 -0.9972 -0.0479
vn 0.2972 -0.9393 -0.1716
vn 0.6696 -0.7016 -0.2437
vn 0.9289 -0.3322 -0.1638
vn 0.9432 -0.3322 -0.0000
vn 0.0571 -0.9972 0.0479
vn 0.2972 -0.9393 0.1716
vn 0.6696 -0.7016 0.2437
vn 0.9289 -0.3322 0.1638
vn 0.0479 -0.9972 -0.0571
vn 0.2629 -0.9393 -0.2206
vn 0.6171 -0.7016 -0.3563
vn 0.8863 -0.3322 -0.3226
vn 0.9823 -0.0709 -0.1732
vn 0.9975 -0.0709 0.0000
vn 0.0479 -0.9972 0.0571
vn 0.2629 -0.9393 0.2206
vn 0.6171 -0.7016 0.3563
vn 0.8863 -0.3322 0.3226
vn 0.9823 -0.0709 0.1732
vn 0.0373 -0.9972 -0.0645
vn 0.2206 -0.9393 -0.2629
vn 0.5458 -0.7016 -0.4580
vn 0.8168 -0.3322 -0.4716
vn 0.9373 -0.0709 -0.3412
vn 0.9823 0.0709 -0.1732
vn 0.9975 0.0709 0.0000
vn 0.0373 -0.9972 0.0645
vn 0.2206 -0.9393 0.2629
vn 0.5458 -0.7016 0.4580
vn 0.8168 -0.3322 0.4716
vn 0.9373 -0.0709 0.3412
vn 0.9823 0.0709 0.1732
vn 0.0255 -0.9972 -0.0700
vn 0.1716 -0.9393 -0.2972
vn 0.4580 -0.7016 -0.5458
vn 0.7225 -0.3322 -0.6063
vn 0.8638 -0.0709 -0.4987
vn 0.9373 0.0709 -0.3412
vn 0.9289 0.3322 -0.1638
vn 0.9432 0.3322 -0.0000
vn 0.0316 -0.9972 0.0678
vn 0.1716 -0.9393 0.2972
vn 0.4580 -0.7016 0.5458
vn 0.7225 -0.3322 0.6063
vn 0.8638 -0.0709 0.4987
vn 0.9373 0.0709 0.3412
vn 0.9289 0.3322 0.1638
vn 0.0129 -0.9972 -0.0734
vn 0.1174 -0.9393 -0.3225
vn 0.3563 -0.7016 -0.6171
vn 0.6063 -0.3322 -0.7225
vn 0.7641 -0.0709 -0.6412
vn 0.8638 0.0709 -0.4987
vn 0.8863 0.3322 -0.3226
vn 0.7017 0.7016 -0.1237
vn 0.7125 0.7016 -0.0000
vn 0.1455 -0.9388 0.3121
vn 0.3563 -0.7016 0.6171
vn 0.3017 -0.7003 0.6470
vn 0.4716 -0.3322 0.8168
vn 0.3988 -0.3311 0.8552
vn 0.4987 -0.0709 0.8638
vn 0.4216 -0.0706 0.9040
vn 0.4987 0.0709 0.8638
vn 0.4216 0.0706 0.9040
vn 0.4716 0.3322 0.8168
vn 0.3988 0.3311 0.8552
vn 0.3563 0.7016 0.6171
vn 0.3017 0.7003 0.6470
vn 0.1716 0.9393 0.2972
vn 0.1455 0.9388 0.3121
vn 0.0373 0.9972 0.0645
vn 0.0316 0.9972 0.0678
vn 0.0000 1.0000 -0.0000
vn 0.6063 -0.3322 0.7225
vn 0.7641 -0.0709 0.6412
vn 0.8638 0.0709 0.4987
vn 0.8863 0.3322 0.3226
vn 0.7017 0.7016 0.1237
vn 0.0000 -0.9972 -0.0745
vn 0.0596 -0.9393 -0.3380
vn 0.2437 -0.7016 -0.6696
vn 0.4716 -0.3322 -0.8168
vn 0.6412 -0.0709 -0.7641
vn 0.7641 0.0709 -0.6412
vn 0.8168 0.3322 -0.4716
vn 0.6696 0.7016 -0.2437
vn 0.3380 0.9393 -0.0596
vn 0.3432 0.9393 -0.0000
vn -0.0373 0.9972 0.0645
vn -0.0316 0.9972 0.0678
vn -0.1716 0.9393 0.2972
vn -0.1455 0.9388 0.3121
vn -0.3563 0.7016 0.6171
vn -0.3017 0.7003 0.6470
vn -0.4716 0.3322 0.8168
vn -0.3988 0.3311 0.8552
vn -0.4987 0.0709 0.8638
vn -0.4216 0.0706 0.9040
vn -0.4987 -0.0709 0.8638
vn -0.4216 -0.0706 0.9040
vn -0.4716 -0.3322 0.8168
vn -0.3988 -0.3311 0.8552
vn -0.3563 -0.7016 0.6171
vn -0.3017 -0.7003 0.6470
vn -0.1716 -0.9393 0.2972
vn -0.1455 -0.9388 0.3121
vn -0.0373 -0.9972 0.0645
vn -0.0316 -0.9972 0.0678
vn 0.6412 -0.0709 0.7641
vn 0.6412 0.0709 0.7641
vn 0.6063 0.3322 0.7225
vn 0.4580 0.7016 0.5458
vn 0.2206 0.9393 0.2629
vn 0.0479 0.9972 0.0571
vn 0.7641 0.0709 0.6412
vn 0.8168 0.3322 0.4716
vn 0.6696 0.7016 0.2437
vn 0.3380 0.9393 0.0596
vn -0.0129 -0.9972 -0.0734
vn 0.0000 -0.9393 -0.3432
vn 0.1237 -0.7016 -0.7017
vn 0.3226 -0.3322 -0.8863
vn 0.4987 -0.0709 -0.8638
vn 0.6412 0.0709 -0.7641
vn 0.7225 0.3322 -0.6063
vn 0.6171 0.7016 -0.3563
vn 0.3225 0.9393 -0.1174
vn 0.0734 0.9972 -0.0129
vn 0.0745 0.9972 0.0000
vn -0.0479 0.9972 0.0571
vn -0.2206 0.9393 0.2629
vn -0.4580 0.7016 0.5458
vn -0.6063 0.3322 0.7225
vn -0.6412 0.0709 0.7641
vn -0.6412 -0.0709 0.7641
vn -0.6063 -0.3322 0.7225
vn -0.4580 -0.7016 0.5458
vn -0.2206 -0.9393 0.2629
vn -0.0479 -0.9972 0.0571
vn 0.7225 0.3322 0.6063
vn 0.5458 0.7016 0.4580
vn 0.2629 0.9393 0.2206
vn 0.0571 0.9972 0.0479
vn 0.6171 0.7016 0.3563
vn 0.3225 0.9393 0.1174
vn 0.0734 0.9972 0.0129
vn -0.0255 -0.9972 -0.0700
vn -0.0596 -0.9393 -0.3380
vn 0.0000 -0.7016 -0.7125
vn 0.1638 -0.3322 -0.9289
vn 0.3412 -0.0709 -0.9373
vn 0.4987 0.0709 -0.8638
vn 0.6063 0.3322 -0.7225
vn 0.5458 0.7016 -0.4580
vn 0.2972 0.9393 -0.1716
vn 0.0700 0.9972 -0.0255
vn -0.0571 0.9972 0.0479
vn -0.2629 0.9393 0.2206
vn -0.5458 0.7016 0.4580
vn -0.7225 0.3322 0.6063
vn -0.7641 0.0709 0.6412
vn -0.7641 -0.0709 0.6412
vn -0.7225 -0.3322 0.6063
vn -0.5458 -0.7016 0.4580
vn -0.2629 -0.9393 0.2206
vn -0.0571 -0.9972 0.0479
vn 0.2972 0.9393 0.1716
vn 0.0645 0.9972 0.0373
vn 0.0700 0.9972 0.0255
vn -0.0373 -0.9972 -0.0645
vn -0.1174 -0.9393 -0.3225
vn -0.1237 -0.7016 -0.7017
vn 0.0000 -0.3322 -0.9432
vn 0.1732 -0.0709 -0.9823
vn 0.3412 0.0709 -0.9373
vn 0.4716 0.3322 -0.8168
vn 0.4580 0.7016 -0.5458
vn 0.2629 0.9393 -0.2206
vn 0.0645 0.9972 -0.0373
vn -0.0645 0.9972 0.0373
vn -0.2972 0.9393 0.1716
vn -0.6171 0.7016 0.3563
vn -0.8168 0.3322 0.4716
vn -0.8638 0.0709 0.4987
vn -0.8638 -0.0709 0.4987
vn -0.8168 -0.3322 0.4716
vn -0.6171 -0.7016 0.3563
vn -0.2972 -0.9393 0.1716
vn -0.0645 -0.9972 0.0373
vn -0.0479 -0.9972 -0.0571
vn -0.1716 -0.9393 -0.2972
vn -0.2437 -0.7016 -0.6696
vn -0.1638 -0.3322 -0.9289
vn 0.0000 -0.0709 -0.9975
vn 0.1732 0.0709 -0.9823
vn 0.3226 0.3322 -0.8863
vn 0.3563 0.7016 -0.6171
vn 0.2206 0.9393 -0.2629
vn 0.0571 0.9972 -0.0479
vn -0.0700 0.9972 0.0255
vn -0.3225 0.9393 0.1174
vn -0.6696 0.7016 0.2437
vn -0.8863 0.3322 0.3226
vn -0.9373 0.0709 0.3412
vn -0.9373 -0.0709 0.3412
vn -0.8863 -0.3322 0.3226
vn -0.6696 -0.7016 0.2437
vn -0.3225 -0.9393 0.1174
vn -0.0700 -0.9972 0.0255
vn -0.0571 -0.9972 -0.0479
vn -0.2206 -0.9393 -0.2629
vn -0.3563 -0.7016 -0.6171
vn -0.3226 -0.3322 -0.8863
vn -0.1732 -0.0709 -0.9823
vn 0.0000 0.0709 -0.9975
vn 0.1638 0.3322 -0.9289
vn 0.2437 0.7016 -0.6696
vn 0.1716 0.9393 -0.2972
vn 0.0479 0.9972 -0.0571
vn -0.0734 0.9972 0.0129
vn -0.3380 0.9393 0.0596
vn -0.7017 0.7016 0.1237
vn -0.9289 0.3322 0.1638
vn -0.9823 0.0709 0.1732
vn -0.9823 -0.0709 0.1732
vn -0.9289 -0.3322 0.1638
vn -0.7017 -0.7016 0.1237
vn -0.3380 -0.9393 0.0596
vn -0.0734 -0.9972 0.0129
vn -0.0645 -0.9972 -0.0373
vn -0.2629 -0.9393 -0.2206
vn -0.4580 -0.7016 -0.5458
vn -0.4716 -0.3322 -0.8168
vn -0.3412 -0.0709 -0.9373
vn -0.1732 0.0709 -0.9823
vn 0.0000 0.3322 -0.9432
vn 0.1237 0.7016 -0.7017
vn 0.1174 0.9393 -0.3225
vn 0.0373 0.9972 -0.0645
vn -0.0745 0.9972 -0.0000
vn -0.3432 0.9393 -0.0000
vn -0.7125 0.7016 -0.0000
vn -0.9432 0.3322 -0.0000
vn -0.9975 0.0709 -0.0000
vn -0.9975 -0.0709 0.0000
vn -0.9432 -0.3322 -0.0000
vn -0.7125 -0.7016 -0.0000
vn -0.3432 -0.9393 -0.0000
vn -0.0745 -0.9972 -0.0000
vn -0.0700 -0.9972 -0.0255
vn -0.2972 -0.9393 -0.1716
vn -0.5458 -0.7016 -0.4580
vn -0.6063 -0.3322 -0.7225
vn -0.4987 -0.0709 -0.8638
vn -0.3412 0.0709 -0.9373
vn -0.1638 0.3322 -0.9289
vn 0.0000 0.7016 -0.7125
vn 0.0596 0.9393 -0.3380
vn 0.0255 0.9972 -0.0700
vn -0.0734 0.9972 -0.0129
vn -0.3380 0.9393 -0.0596
vn -0.7017 0.7016 -0.1237
vn -0.9289 0.3322 -0.1638
vn -0.9823 0.0709 -0.1732
vn -0.9823 -0.0709 -0.1732
vn -0.9289 -0.3322 -0.1638
vn -0.7017 -0.7016 -0.1237
vn -0.3380 -0.9393 -0.0596
vn -0.0734 -0.9972 -0.0129
vn -0.3225 -0.9393 -0.1174
vn -0.6171 -0.7016 -0.3563
vn -0.7225 -0.3322 -0.6063
vn -0.6412 -0.0709 -0.7641
vn -0.4987 0.0709 -0.8638
vn -0.3226 0.3322 -0.8863
vn -0.1237 0.7016 -0.7017
vn 0.0000 0.9393 -0.3432
vn 0.0129 0.9972 -0.0734
vn -0.0700 0.9972 -0.0255
vn -0.3225 0.9393 -0.1174
vn -0.6696 0.7016 -0.2437
vn -0.8863 0.3322 -0.3226
vn -0.9373 0.0709 -0.3412
vn -0.9373 -0.0709 -0.3412
vn -0.8863 -0.3322 -0.3226
vn -0.6696 -0.7016 -0.2437
vn -0.8168 -0.3322 -0.4716
vn -0.7641 -0.0709 -0.6412
vn -0.6412 0.0709 -0.7641
vn -0.4716 0.3322 -0.8168
vn -0.2437 0.7016 -0.6696
vn -0.0596 0.9393 -0.3380
vn 0.0000 0.9972 -0.0745
vn -0.0645 0.9972 -0.0373
vn -0.2972 0.9393 -0.1716
vn -0.6171 0.7016 -0.3563
vn -0.8168 0.3322 -0.4716
vn -0.8638 0.0709 -0.4987
vn -0.8638 -0.0709 -0.4987
vn -0.7641 0.0709 -0.6412
vn -0.6063 0.3322 -0.7225
vn -0.3563 0.7016 -0.6171
vn -0.1174 0.9393 -0.3225
vn -0.0129 0.9972 -0.0734
vn -0.0571 0.9972 -0.0479
vn -0.2629 0.9393 -0.2206
vn -0.5458 0.7016 -0.4580
vn -0.7225 0.3322 -0.6063
vn -0.4580 0.7016 -0.5458
vn -0.1716 0.9393 -0.2972
vn -0.0255 0.9972 -0.0700
vn -0.0479 0.9972 -0.0571
vn -0.2206 0.9393 -0.2629
vn -0.0373 0.9972 -0.0645
vn 0.9397 0.0000 0.3420
vn -0.9397 0.0000 0.3420
vn -0.9397 -0.0000 0.3420
vn 0.9397 -0.0000 0.3420
# 336 vertex normals

vt 0.2500 0.2506 0.0000
vt 0.1355 0.2708 0.0000
vt 0.1337 0.2506 0.0000
vt 0.1355 0.2304 0.0000
vt 0.1407 0.2904 0.0000
vt 0.0416 0.2873 0.0000
vt 0.0384 0.2506 0.0000
vt 0.1407 0.2108 0.0000
vt 0.0416 0.2138 0.0000
vt 0.1493 0.3088 0.0000
vt 0.0512 0.3230 0.0000
vt 0.0327 0.2889 0.0000
vt 0.0295 0.2505 0.0000
vt 0.1492 0.1925 0.0000
vt 0.0511 0.1782 0.0000
vt 0.0326 0.2122 0.0000
vt 0.1609 0.3254 0.0000
vt 0.0667 0.3564 0.0000
vt 0.0426 0.3260 0.0000
vt 0.0254 0.2901 0.0000
vt 0.0223 0.2505 0.0000
vt 0.1608 0.1759 0.0000
vt 0.0666 0.1448 0.0000
vt 0.0426 0.1751 0.0000
vt 0.0253 0.2109 0.0000
vt 0.1752 0.3397 0.0000
vt 0.0879 0.3866 0.0000
vt 0.0589 0.3608 0.0000
vt 0.0357 0.3285 0.0000
vt 0.0182 0.2913 0.0000
vt 0.0149 0.2505 0.0000
vt 0.1750 0.1615 0.0000
vt 0.0877 0.1146 0.0000
vt 0.0587 0.1403 0.0000
vt 0.0357 0.1726 0.0000
vt 0.0182 0.2096 0.0000
vt 0.1918 0.3514 0.0000
vt 0.1140 0.4127 0.0000
vt 0.0809 0.3924 0.0000
vt 0.0525 0.3645 0.0000
vt 0.0288 0.3309 0.0000
vt 0.0093 0.2929 0.0000
vt 0.0058 0.2505 0.0000
vt 0.1916 0.1499 0.0000
vt 0.1137 0.0885 0.0000
vt 0.0807 0.1088 0.0000
vt 0.0524 0.1366 0.0000
vt 0.0288 0.1701 0.0000
vt 0.0093 0.2081 0.0000
vt 0.2102 0.3600 0.0000
vt 0.1442 0.4339 0.0000
vt 0.1081 0.4196 0.0000
vt 0.0753 0.3970 0.0000
vt 0.0462 0.3681 0.0000
vt 0.0203 0.3340 0.0000
vt 0.7234 0.3030 0.0000
vt 0.7234 0.3442 0.0000
vt 0.6153 0.3442 0.0000
vt 0.6153 0.3030 0.0000
vt 0.2099 0.1413 0.0000
vt 0.1437 0.0673 0.0000
vt 0.1077 0.0816 0.0000
vt 0.0750 0.1042 0.0000
vt 0.0460 0.1330 0.0000
vt 0.0202 0.1670 0.0000
vt 0.7234 0.2618 0.0000
vt 0.6153 0.2618 0.0000
vt 0.2298 0.3652 0.0000
vt 0.1776 0.4495 0.0000
vt 0.1396 0.4417 0.0000
vt 0.1034 0.4252 0.0000
vt 0.0697 0.4017 0.0000
vt 0.0383 0.3726 0.0000
vt 0.7234 0.3854 0.0000
vt 0.6153 0.3854 0.0000
vt 0.4937 0.7528 0.0000
vt 0.4903 0.7952 0.0000
vt 0.4813 0.7936 0.0000
vt 0.4847 0.7528 0.0000
vt 0.1771 0.0517 0.0000
vt 0.1390 0.0595 0.0000
vt 0.1028 0.0761 0.0000
vt 0.0693 0.0995 0.0000
vt 0.0381 0.1285 0.0000
vt 0.7234 0.2206 0.0000
vt 0.6153 0.2206 0.0000
vt 0.4903 0.7104 0.0000
vt 0.4814 0.7119 0.0000
vt 0.2500 0.3670 0.0000
vt 0.2133 0.4591 0.0000
vt 0.1745 0.4579 0.0000
vt 0.1360 0.4480 0.0000
vt 0.0987 0.4307 0.0000
vt 0.0628 0.4075 0.0000
vt 0.7234 0.4266 0.0000
vt 0.6153 0.4266 0.0000
vt 0.4792 0.8363 0.0000
vt 0.4707 0.8332 0.0000
vt 0.4742 0.7924 0.0000
vt 0.4773 0.7528 0.0000
vt 0.1737 0.0430 0.0000
vt 0.1350 0.0533 0.0000
vt 0.1705 0.0359 0.0000
vt 0.1309 0.0471 0.0000
vt 0.1670 0.0291 0.0000
vt 0.1261 0.0394 0.0000
vt 0.1628 0.0209 0.0000
vt 0.7234 0.0145 0.0000
vt 0.7234 0.0557 0.0000
vt 0.6153 0.0557 0.0000
vt 0.6153 0.0145 0.0000
vt 0.3368 0.5232 0.0000
vt 0.3735 0.5417 0.0000
vt 0.3686 0.5494 0.0000
vt 0.3325 0.5314 0.0000
vt 0.3646 0.5555 0.0000
vt 0.3290 0.5382 0.0000
vt 0.3606 0.5618 0.0000
vt 0.3259 0.5452 0.0000
vt 0.3558 0.5696 0.0000
vt 0.3224 0.5539 0.0000
vt 0.3079 0.6522 0.0000
vt 0.2896 0.6436 0.0000
vt 0.2495 0.7529 0.0000
vt 0.0979 0.0706 0.0000
vt 0.0623 0.0937 0.0000
vt 0.7234 0.1793 0.0000
vt 0.6153 0.1793 0.0000
vt 0.4793 0.6693 0.0000
vt 0.4708 0.6724 0.0000
vt 0.4742 0.7132 0.0000
vt 0.2702 0.3652 0.0000
vt 0.2500 0.4623 0.0000
vt 0.2117 0.4679 0.0000
vt 0.1720 0.4648 0.0000
vt 0.1323 0.4543 0.0000
vt 0.0929 0.4377 0.0000
vt 0.7234 0.4678 0.0000
vt 0.6153 0.4678 0.0000
vt 0.4612 0.8749 0.0000
vt 0.4534 0.8704 0.0000
vt 0.4638 0.8307 0.0000
vt 0.4669 0.7911 0.0000
vt 0.4700 0.7528 0.0000
vt 0.2901 0.1413 0.0000
vt 0.3084 0.1499 0.0000
vt 0.1911 0.6522 0.0000
vt 0.2095 0.6436 0.0000
vt 0.1433 0.5696 0.0000
vt 0.1766 0.5539 0.0000
vt 0.1385 0.5618 0.0000
vt 0.1732 0.5452 0.0000
vt 0.1345 0.5555 0.0000
vt 0.1700 0.5382 0.0000
vt 0.1304 0.5494 0.0000
vt 0.1665 0.5314 0.0000
vt 0.1256 0.5417 0.0000
vt 0.1623 0.5232 0.0000
vt 0.6090 0.5466 0.0000
vt 0.6090 0.5878 0.0000
vt 0.5009 0.5878 0.0000
vt 0.5009 0.5466 0.0000
vt 0.3373 0.0209 0.0000
vt 0.3740 0.0394 0.0000
vt 0.3691 0.0471 0.0000
vt 0.3330 0.0291 0.0000
vt 0.3650 0.0533 0.0000
vt 0.3295 0.0359 0.0000
vt 0.3611 0.0595 0.0000
vt 0.3264 0.0430 0.0000
vt 0.3563 0.0673 0.0000
vt 0.3229 0.0517 0.0000
vt 0.0920 0.0637 0.0000
vt 0.7234 0.0969 0.0000
vt 0.6153 0.0969 0.0000
vt 0.4076 0.5660 0.0000
vt 0.4016 0.5729 0.0000
vt 0.3968 0.5784 0.0000
vt 0.3919 0.5839 0.0000
vt 0.3859 0.5908 0.0000
vt 0.3245 0.6638 0.0000
vt 0.7234 0.1381 0.0000
vt 0.6153 0.1381 0.0000
vt 0.4614 0.6308 0.0000
vt 0.4535 0.6353 0.0000
vt 0.4639 0.6749 0.0000
vt 0.4669 0.7145 0.0000
vt 0.2898 0.3600 0.0000
vt 0.2868 0.4591 0.0000
vt 0.2500 0.4715 0.0000
vt 0.2104 0.4750 0.0000
vt 0.1695 0.4716 0.0000
vt 0.1278 0.4621 0.0000
vt 0.7234 0.5090 0.0000
vt 0.6153 0.5090 0.0000
vt 0.4368 0.9098 0.0000
vt 0.4298 0.9040 0.0000
vt 0.4470 0.8668 0.0000
vt 0.4569 0.8283 0.0000
vt 0.4579 0.7896 0.0000
vt 0.4611 0.7529 0.0000
vt 0.3250 0.1615 0.0000
vt 0.1746 0.6638 0.0000
vt 0.1132 0.5908 0.0000
vt 0.1072 0.5839 0.0000
vt 0.1023 0.5784 0.0000
vt 0.0974 0.5729 0.0000
vt 0.0915 0.5660 0.0000
vt 0.6090 0.5054 0.0000
vt 0.5009 0.5054 0.0000
vt 0.4081 0.0637 0.0000
vt 0.4021 0.0706 0.0000
vt 0.3973 0.0761 0.0000
vt 0.3924 0.0816 0.0000
vt 0.3864 0.0885 0.0000
vt 0.4372 0.5960 0.0000
vt 0.4302 0.6018 0.0000
vt 0.4246 0.6064 0.0000
vt 0.4189 0.6111 0.0000
vt 0.4118 0.6169 0.0000
vt 0.3388 0.6782 0.0000
vt 0.4472 0.6389 0.0000
vt 0.4570 0.6774 0.0000
vt 0.4579 0.7161 0.0000
vt 0.3082 0.3514 0.0000
vt 0.3224 0.4495 0.0000
vt 0.2883 0.4679 0.0000
vt 0.2500 0.4788 0.0000
vt 0.2091 0.4822 0.0000
vt 0.1664 0.4801 0.0000
vt 0.7234 0.5503 0.0000
vt 0.6153 0.5503 0.0000
vt 0.4066 0.9399 0.0000
vt 0.4008 0.9330 0.0000
vt 0.4242 0.8993 0.0000
vt 0.4407 0.8631 0.0000
vt 0.4484 0.8252 0.0000
vt 0.3641 0.7731 0.0000
vt 0.3658 0.7529 0.0000
vt 0.3392 0.1759 0.0000
vt 0.1603 0.6782 0.0000
vt 0.0872 0.6169 0.0000
vt 0.0802 0.6111 0.0000
vt 0.0745 0.6064 0.0000
vt 0.0688 0.6018 0.0000
vt 0.0618 0.5960 0.0000
vt 0.6090 0.4641 0.0000
vt 0.5009 0.4641 0.0000
vt 0.4377 0.0937 0.0000
vt 0.4307 0.0995 0.0000
vt 0.4251 0.1042 0.0000
vt 0.4194 0.1088 0.0000
vt 0.4123 0.1146 0.0000
vt 0.4408 0.6426 0.0000
vt 0.4329 0.6471 0.0000
vt 0.3503 0.6948 0.0000
vt 0.4484 0.6805 0.0000
vt 0.3641 0.7327 0.0000
vt 0.3248 0.3397 0.0000
vt 0.3558 0.4339 0.0000
vt 0.3255 0.4579 0.0000
vt 0.2896 0.4750 0.0000
vt 0.2500 0.4860 0.0000
vt 0.2076 0.4911 0.0000
vt 0.7234 0.5915 0.0000
vt 0.6153 0.5915 0.0000
vt 0.3717 0.9644 0.0000
vt 0.3672 0.9566 0.0000
vt 0.3961 0.9274 0.0000
vt 0.4186 0.8946 0.0000
vt 0.4328 0.8587 0.0000
vt 0.3588 0.7927 0.0000
vt 0.3508 0.1925 0.0000
vt 0.1487 0.6948 0.0000
vt 0.0661 0.6471 0.0000
vt 0.0583 0.6426 0.0000
vt 0.0519 0.6389 0.0000
vt 0.0455 0.6353 0.0000
vt 0.0376 0.6308 0.0000
vt 0.6090 0.4229 0.0000
vt 0.5009 0.4229 0.0000
vt 0.4619 0.1285 0.0000
vt 0.4540 0.1330 0.0000
vt 0.4477 0.1366 0.0000
vt 0.4413 0.1403 0.0000
vt 0.4334 0.1448 0.0000
vt 0.3589 0.7131 0.0000
vt 0.3391 0.3254 0.0000
vt 0.3861 0.4127 0.0000
vt 0.3604 0.4417 0.0000
vt 0.3280 0.4648 0.0000
vt 0.2909 0.4822 0.0000
vt 0.2500 0.4950 0.0000
vt 0.7234 0.6327 0.0000
vt 0.6153 0.6327 0.0000
vt 0.3331 0.9824 0.0000
vt 0.3300 0.9739 0.0000
vt 0.3636 0.9502 0.0000
vt 0.3914 0.9218 0.0000
vt 0.4116 0.8889 0.0000
vt 0.3503 0.8111 0.0000
vt 0.3593 0.2108 0.0000
vt 0.1402 0.7131 0.0000
vt 0.0506 0.6805 0.0000
vt 0.0421 0.6774 0.0000
vt 0.0352 0.6749 0.0000
vt 0.0283 0.6724 0.0000
vt 0.0198 0.6693 0.0000
vt 0.6090 0.3817 0.0000
vt 0.5009 0.3817 0.0000
vt 0.4798 0.1670 0.0000
vt 0.4713 0.1701 0.0000
vt 0.4644 0.1726 0.0000
vt 0.4575 0.1751 0.0000
vt 0.4489 0.1782 0.0000
vt 0.3508 0.3088 0.0000
vt 0.4121 0.3866 0.0000
vt 0.3919 0.4196 0.0000
vt 0.3641 0.4480 0.0000
vt 0.3305 0.4716 0.0000
vt 0.2925 0.4911 0.0000
vt 0.7234 0.6739 0.0000
vt 0.6153 0.6739 0.0000
vt 0.2920 0.9934 0.0000
vt 0.2904 0.9845 0.0000
vt 0.3275 0.9670 0.0000
vt 0.3599 0.9439 0.0000
vt 0.3856 0.9150 0.0000
vt 0.3386 0.8277 0.0000
vt 0.3646 0.2304 0.0000
vt 0.1350 0.7327 0.0000
vt 0.0411 0.7161 0.0000
vt 0.0321 0.7145 0.0000
vt 0.0249 0.7132 0.0000
vt 0.0177 0.7119 0.0000
vt 0.0088 0.7104 0.0000
vt 0.6090 0.3405 0.0000
vt 0.5009 0.3405 0.0000
vt 0.4908 0.2081 0.0000
vt 0.4819 0.2096 0.0000
vt 0.4747 0.2109 0.0000
vt 0.4674 0.2122 0.0000
vt 0.4584 0.2138 0.0000
vt 0.3593 0.2904 0.0000
vt 0.4333 0.3564 0.0000
vt 0.4191 0.3924 0.0000
vt 0.3966 0.4252 0.0000
vt 0.3677 0.4543 0.0000
vt 0.3336 0.4801 0.0000
vt 0.7234 0.7151 0.0000
vt 0.6153 0.7151 0.0000
vt 0.2495 0.9973 0.0000
vt 0.2495 0.9883 0.0000
vt 0.2891 0.9773 0.0000
vt 0.3250 0.9602 0.0000
vt 0.3554 0.9361 0.0000
vt 0.3243 0.8420 0.0000
vt 0.3663 0.2506 0.0000
vt 0.1332 0.7529 0.0000
vt 0.0380 0.7529 0.0000
vt 0.0290 0.7528 0.0000
vt 0.0218 0.7528 0.0000
vt 0.0144 0.7528 0.0000
vt 0.0053 0.7528 0.0000
vt 0.6090 0.2993 0.0000
vt 0.5009 0.2993 0.0000
vt 0.4942 0.2505 0.0000
vt 0.4851 0.2505 0.0000
vt 0.4778 0.2505 0.0000
vt 0.4705 0.2505 0.0000
vt 0.4616 0.2506 0.0000
vt 0.3646 0.2708 0.0000
vt 0.4489 0.3230 0.0000
vt 0.4411 0.3608 0.0000
vt 0.4247 0.3970 0.0000
vt 0.4013 0.4307 0.0000
vt 0.3722 0.4621 0.0000
vt 0.7234 0.7563 0.0000
vt 0.6153 0.7563 0.0000
vt 0.2071 0.9934 0.0000
vt 0.2087 0.9845 0.0000
vt 0.2495 0.9811 0.0000
vt 0.2878 0.9701 0.0000
vt 0.3219 0.9517 0.0000
vt 0.3077 0.8536 0.0000
vt 0.1350 0.7731 0.0000
vt 0.0412 0.7896 0.0000
vt 0.0322 0.7911 0.0000
vt 0.0249 0.7924 0.0000
vt 0.0177 0.7936 0.0000
vt 0.0088 0.7952 0.0000
vt 0.6090 0.2581 0.0000
vt 0.5009 0.2581 0.0000
vt 0.4907 0.2929 0.0000
vt 0.4818 0.2913 0.0000
vt 0.4747 0.2901 0.0000
vt 0.4674 0.2889 0.0000
vt 0.4584 0.2873 0.0000
vt 0.4574 0.3260 0.0000
vt 0.4475 0.3645 0.0000
vt 0.4303 0.4017 0.0000
vt 0.4071 0.4377 0.0000
vt 0.6090 0.0108 0.0000
vt 0.6090 0.0520 0.0000
vt 0.5009 0.0520 0.0000
vt 0.5009 0.0108 0.0000
vt 0.1659 0.9824 0.0000
vt 0.1690 0.9739 0.0000
vt 0.2099 0.9773 0.0000
vt 0.2495 0.9737 0.0000
vt 0.2863 0.9613 0.0000
vt 0.2893 0.8622 0.0000
vt 0.1402 0.7927 0.0000
vt 0.0507 0.8252 0.0000
vt 0.0421 0.8283 0.0000
vt 0.0352 0.8307 0.0000
vt 0.0283 0.8332 0.0000
vt 0.0198 0.8363 0.0000
vt 0.6090 0.2169 0.0000
vt 0.5009 0.2169 0.0000
vt 0.4797 0.3340 0.0000
vt 0.4712 0.3309 0.0000
vt 0.4643 0.3285 0.0000
vt 0.4538 0.3681 0.0000
vt 0.4373 0.4075 0.0000
vt 0.6090 0.0932 0.0000
vt 0.5009 0.0932 0.0000
vt 0.1273 0.9644 0.0000
vt 0.1318 0.9566 0.0000
vt 0.1715 0.9670 0.0000
vt 0.2112 0.9701 0.0000
vt 0.2495 0.9646 0.0000
vt 0.2697 0.8675 0.0000
vt 0.1488 0.8111 0.0000
vt 0.0663 0.8587 0.0000
vt 0.0584 0.8631 0.0000
vt 0.0520 0.8668 0.0000
vt 0.0457 0.8704 0.0000
vt 0.0378 0.8749 0.0000
vt 0.6090 0.1757 0.0000
vt 0.5009 0.1757 0.0000
vt 0.4617 0.3726 0.0000
vt 0.6090 0.1345 0.0000
vt 0.5009 0.1345 0.0000
vt 0.0924 0.9399 0.0000
vt 0.0982 0.9330 0.0000
vt 0.1355 0.9502 0.0000
vt 0.1740 0.9602 0.0000
vt 0.2128 0.9613 0.0000
vt 0.2495 0.8693 0.0000
vt 0.1604 0.8277 0.0000
vt 0.0874 0.8889 0.0000
vt 0.0804 0.8946 0.0000
vt 0.0748 0.8993 0.0000
vt 0.0692 0.9040 0.0000
vt 0.0623 0.9098 0.0000
vt 0.1029 0.9274 0.0000
vt 0.1391 0.9439 0.0000
vt 0.1771 0.9517 0.0000
vt 0.2293 0.8675 0.0000
vt 0.1747 0.8420 0.0000
vt 0.1135 0.9150 0.0000
vt 0.1076 0.9218 0.0000
vt 0.1437 0.9361 0.0000
vt 0.2097 0.8622 0.0000
vt 0.1914 0.8536 0.0000
vt 0.8887 0.1311 0.0000
vt 0.8887 0.2493 0.0000
vt 0.7382 0.2493 0.0000
vt 0.7382 0.1311 0.0000
vt 0.8887 0.0342 0.0000
vt 0.7382 0.0342 0.0000
vt 0.7382 0.3676 0.0000
vt 0.8887 0.3676 0.0000
vt 0.7382 0.4645 0.0000
vt 0.8887 0.4645 0.0000
vt 0.8874 0.4738 0.0000
vt 0.8834 0.4804 0.0000
vt 0.8768 0.4844 0.0000
vt 0.8675 0.4858 0.0000
vt 0.7594 0.4858 0.0000
vt 0.7501 0.4844 0.0000
vt 0.7435 0.4804 0.0000
vt 0.7395 0.4738 0.0000
vt 0.7395 0.0249 0.0000
vt 0.7435 0.0182 0.0000
vt 0.7501 0.0142 0.0000
vt 0.7594 0.0129 0.0000
vt 0.8675 0.0129 0.0000
vt 0.8768 0.0142 0.0000
vt 0.8834 0.0182 0.0000
vt 0.8874 0.0249 0.0000
# 492 texture coords

o Cylinder001
g Cylinder001
usemtl cheese
s 4
f 1/1/1 2/2/1 3/3/1 
f 1/1/1 3/3/1 4/4/1 
f 1/1/1 5/5/1 2/2/1 
f 3/3/1 2/2/1 6/6/2 7/7/3 
f 1/1/1 4/4/1 8/8/1 
f 4/4/1 3/3/1 7/7/3 9/9/4 
f 1/1/1 10/10/1 5/5/1 
f 2/2/1 5/5/1 11/11/5 6/6/2 
f 7/7/3 6/6/2 12/12/6 13/13/7 
f 1/1/1 8/8/1 14/14/1 
f 8/8/1 4/4/1 9/9/4 15/15/8 
f 9/9/4 7/7/3 13/13/7 16/16/9 
f 1/1/1 17/17/1 10/10/1 
f 5/5/1 10/10/1 18/18/10 11/11/5 
f 6/6/2 11/11/5 19/19/11 12/12/6 
f 13/13/7 12/12/6 20/20/12 21/21/13 
f 1/1/1 14/14/1 22/22/1 
f 14/14/1 8/8/1 15/15/8 23/23/14 
f 15/15/8 9/9/4 16/16/9 24/24/15 
f 16/16/9 13/13/7 21/21/13 25/25/16 
f 1/1/1 26/26/1 17/17/1 
f 10/10/1 17/17/1 27/27/17 18/18/10 
f 11/11/5 18/18/10 28/28/18 19/19/11 
f 12/12/6 19/19/11 29/29/19 20/20/12 
f 30/30/20 31/31/21 21/21/13 20/20/12 
f 1/1/1 22/22/1 32/32/1 
f 22/22/1 14/14/1 23/23/14 33/33/22 
f 23/23/14 15/15/8 24/24/15 34/34/23 
f 24/24/15 16/16/9 25/25/16 35/35/24 
f 31/31/21 36/36/25 25/25/16 21/21/13 
f 1/1/1 37/37/1 26/26/1 
f 17/17/1 26/26/1 38/38/26 27/27/17 
f 18/18/10 27/27/17 39/39/27 28/28/18 
f 19/19/11 28/28/18 40/40/28 29/29/19 
f 41/41/29 30/30/20 20/20/12 29/29/19 
f 42/42/30 43/43/31 31/31/21 30/30/20 
f 1/1/1 32/32/1 44/44/1 
f 32/32/1 22/22/1 33/33/22 45/45/32 
f 33/33/22 23/23/14 34/34/23 46/46/33 
f 34/34/23 24/24/15 35/35/24 47/47/34 
f 36/36/25 48/48/35 35/35/24 25/25/16 
f 43/43/31 49/49/36 36/36/25 31/31/21 
f 1/1/1 50/50/1 37/37/1 
f 26/26/1 37/37/1 51/51/37 38/38/26 
f 27/27/17 38/38/26 52/52/38 39/39/27 
f 28/28/18 39/39/27 53/53/39 40/40/28 
f 54/54/40 41/41/29 29/29/19 40/40/28 
f 55/55/41 42/42/30 30/30/20 41/41/29 
f 43/56/31 42/57/30 56/58/42 57/59/43 
f 1/1/1 44/44/1 58/60/1 
f 44/44/1 32/32/1 45/45/32 59/61/44 
f 45/45/32 33/33/22 46/46/33 60/62/45 
f 46/46/33 34/34/23 47/47/34 61/63/46 
f 48/48/35 62/64/47 47/47/34 35/35/24 
f 49/49/36 63/65/48 48/48/35 36/36/25 
f 49/66/36 43/56/31 57/59/43 64/67/49 
f 1/1/1 65/68/1 50/50/1 
f 37/37/1 50/50/1 66/69/50 51/51/37 
f 38/38/26 51/51/37 67/70/51 52/52/38 
f 39/39/27 52/52/38 68/71/52 53/53/39 
f 69/72/53 54/54/40 40/40/28 53/53/39 
f 70/73/54 55/55/41 41/41/29 54/54/40 
f 42/57/30 55/74/41 71/75/55 56/58/42 
f 57/76/43 56/77/42 72/78/56 73/79/57 
f 58/60/1 44/44/1 59/61/44 74/80/58 
f 59/61/44 45/45/32 60/62/45 75/81/59 
f 60/62/45 46/46/33 61/63/46 76/82/60 
f 62/64/47 77/83/61 61/63/46 47/47/34 
f 63/65/48 78/84/62 62/64/47 48/48/35 
f 63/85/48 49/66/36 64/67/49 79/86/63 
f 64/87/49 57/76/43 73/79/57 80/88/64 
f 1/1/1 81/89/1 65/68/1 
f 50/50/1 65/68/1 82/90/65 66/69/50 
f 51/51/37 66/69/50 83/91/66 67/70/51 
f 52/52/38 67/70/51 84/92/67 68/71/52 
f 85/93/68 69/72/53 53/53/39 68/71/52 
f 86/94/69 70/73/54 54/54/40 69/72/53 
f 55/74/41 70/95/54 87/96/70 71/75/55 
f 56/77/42 71/97/55 88/98/71 72/78/56 
f 73/79/57 72/78/56 89/99/72 90/100/73 
f 74/80/58 59/61/44 75/81/59 91/101/74 
f 91/101/74 75/81/59 92/102/75 93/103/76 
f 94/104/77 95/105/78 93/103/76 92/102/75 
f 96/106/79 97/107/80 95/105/78 94/104/77 
f 97/108/80 96/109/79 98/110/81 99/111/82 
f 99/112/82 98/113/81 100/114/83 101/115/84 
f 101/115/84 100/114/83 102/116/85 103/117/86 
f 104/118/87 105/119/88 103/117/86 102/116/85 
f 106/120/89 107/121/90 105/119/88 104/118/87 
f 107/121/90 106/120/89 108/122/91 109/123/91 
f 110/124/91 109/123/91 108/122/91 
f 75/81/59 60/62/45 76/82/60 92/102/75 
f 77/83/61 111/125/92 76/82/60 61/63/46 
f 78/84/62 112/126/93 77/83/61 62/64/47 
f 78/127/62 63/85/48 79/86/63 113/128/94 
f 79/129/63 64/87/49 80/88/64 114/130/95 
f 80/88/64 73/79/57 90/100/73 115/131/96 
f 1/1/1 116/132/1 81/89/1 
f 65/68/1 81/89/1 117/133/97 82/90/65 
f 66/69/50 82/90/65 118/134/98 83/91/66 
f 67/70/51 83/91/66 119/135/99 84/92/67 
f 120/136/100 85/93/68 68/71/52 84/92/67 
f 121/137/101 86/94/69 69/72/53 85/93/68 
f 70/95/54 86/138/69 122/139/102 87/96/70 
f 71/97/55 87/140/70 123/141/103 88/98/71 
f 72/78/56 88/98/71 124/142/104 89/99/72 
f 125/143/105 126/144/106 90/100/73 89/99/72 
f 1/1/1 127/145/1 128/146/1 
f 110/124/91 129/147/91 130/148/91 
f 131/149/107 132/150/108 130/148/91 129/147/91 
f 132/150/108 131/149/107 133/151/109 134/152/110 
f 134/152/110 133/151/109 135/153/111 136/154/112 
f 137/155/113 138/156/114 136/154/112 135/153/111 
f 139/157/115 140/158/116 138/156/114 137/155/113 
f 141/159/117 142/160/118 140/161/116 139/162/115 
f 142/163/118 141/164/117 143/165/119 144/166/120 
f 144/166/120 143/165/119 145/167/121 146/168/122 
f 147/169/123 148/170/124 146/168/122 145/167/121 
f 149/171/125 150/172/126 148/170/124 147/169/123 
f 128/146/1 127/145/1 150/172/126 149/171/125 
f 111/125/92 94/104/77 92/102/75 76/82/60 
f 151/173/127 96/106/79 94/104/77 111/125/92 
f 96/109/79 151/174/127 152/175/128 98/110/81 
f 98/113/81 152/176/128 153/177/129 100/114/83 
f 100/114/83 153/177/129 154/178/130 102/116/85 
f 155/179/131 104/118/87 102/116/85 154/178/130 
f 156/180/132 106/120/89 104/118/87 155/179/131 
f 106/120/89 156/180/132 157/181/91 108/122/91 
f 110/124/91 108/122/91 157/181/91 
f 112/126/93 151/173/127 111/125/92 77/83/61 
f 112/182/93 78/127/62 113/128/94 158/183/133 
f 113/184/94 79/129/63 114/130/95 159/185/134 
f 114/130/95 80/88/64 115/131/96 160/186/135 
f 126/144/106 161/187/136 115/131/96 90/100/73 
f 1/1/1 162/188/1 116/132/1 
f 81/89/1 116/132/1 163/189/137 117/133/97 
f 82/90/65 117/133/97 164/190/138 118/134/98 
f 83/91/66 118/134/98 165/191/139 119/135/99 
f 166/192/140 120/136/100 84/92/67 119/135/99 
f 167/193/141 121/137/101 85/93/68 120/136/100 
f 86/138/69 121/194/101 168/195/142 122/139/102 
f 87/140/70 122/196/102 169/197/143 123/141/103 
f 88/98/71 123/141/103 170/198/144 124/142/104 
f 171/199/145 125/143/105 89/99/72 124/142/104 
f 172/200/146 173/201/147 126/144/106 125/143/105 
f 1/1/1 128/146/1 174/202/1 
f 110/124/91 175/203/91 129/147/91 
f 176/204/148 131/149/107 129/147/91 175/203/91 
f 131/149/107 176/204/148 177/205/149 133/151/109 
f 133/151/109 177/205/149 178/206/150 135/153/111 
f 179/207/151 137/155/113 135/153/111 178/206/150 
f 180/208/152 139/157/115 137/155/113 179/207/151 
f 181/209/153 141/159/117 139/162/115 180/210/152 
f 141/164/117 181/211/153 182/212/154 143/165/119 
f 143/165/119 182/212/154 183/213/155 145/167/121 
f 184/214/156 147/169/123 145/167/121 183/213/155 
f 185/215/157 149/171/125 147/169/123 184/214/156 
f 174/202/1 128/146/1 149/171/125 185/215/157 
f 151/174/127 112/182/93 158/183/133 152/175/128 
f 152/176/128 158/216/133 186/217/158 153/177/129 
f 153/177/129 186/217/158 187/218/159 154/178/130 
f 188/219/160 155/179/131 154/178/130 187/218/159 
f 189/220/161 156/180/132 155/179/131 188/219/160 
f 156/180/132 189/220/161 190/221/91 157/181/91 
f 110/124/91 157/181/91 190/221/91 
f 158/216/133 113/184/94 159/185/134 186/217/158 
f 159/185/134 114/130/95 160/186/135 191/222/162 
f 161/187/136 192/223/163 160/186/135 115/131/96 
f 173/201/147 193/224/164 161/187/136 126/144/106 
f 1/1/1 194/225/1 162/188/1 
f 116/132/1 162/188/1 195/226/165 163/189/137 
f 117/133/97 163/189/137 196/227/166 164/190/138 
f 118/134/98 164/190/138 197/228/167 165/191/139 
f 198/229/168 166/192/140 119/135/99 165/191/139 
f 199/230/169 167/193/141 120/136/100 166/192/140 
f 121/194/101 167/231/141 200/232/170 168/195/142 
f 122/196/102 168/233/142 201/234/171 169/197/143 
f 123/141/103 169/197/143 202/235/172 170/198/144 
f 203/236/173 171/199/145 124/142/104 170/198/144 
f 204/237/174 172/200/146 125/143/105 171/199/145 
f 173/201/147 172/200/146 205/238/91 206/239/91 
f 1/1/1 174/202/1 207/240/1 
f 110/124/91 208/241/91 175/203/91 
f 209/242/175 176/204/148 175/203/91 208/241/91 
f 176/204/148 209/242/175 210/243/176 177/205/149 
f 177/205/149 210/243/176 211/244/177 178/206/150 
f 212/245/178 179/207/151 178/206/150 211/244/177 
f 213/246/179 180/208/152 179/207/151 212/245/178 
f 214/247/180 181/209/153 180/210/152 213/248/179 
f 181/211/153 214/249/180 215/250/181 182/212/154 
f 182/212/154 215/250/181 216/251/182 183/213/155 
f 217/252/183 184/214/156 183/213/155 216/251/182 
f 218/253/184 185/215/157 184/214/156 217/252/183 
f 207/240/1 174/202/1 185/215/157 218/253/184 
f 186/217/158 159/185/134 191/222/162 187/218/159 
f 219/254/185 188/219/160 187/218/159 191/222/162 
f 220/255/186 189/220/161 188/219/160 219/254/185 
f 189/220/161 220/255/186 221/256/91 190/221/91 
f 110/124/91 190/221/91 221/256/91 
f 192/223/163 219/254/185 191/222/162 160/186/135 
f 193/224/164 222/257/187 192/223/163 161/187/136 
f 193/224/164 173/201/147 206/239/91 223/258/91 
f 1/1/1 224/259/1 194/225/1 
f 162/188/1 194/225/1 225/260/188 195/226/165 
f 163/189/137 195/226/165 226/261/189 196/227/166 
f 164/190/138 196/227/166 227/262/190 197/228/167 
f 228/263/191 198/229/168 165/191/139 197/228/167 
f 229/264/192 199/230/169 166/192/140 198/229/168 
f 167/231/141 199/265/169 230/266/193 200/232/170 
f 168/233/142 200/267/170 231/268/194 201/234/171 
f 169/197/143 201/234/171 232/269/195 202/235/172 
f 233/270/196 203/236/173 170/198/144 202/235/172 
f 234/271/197 204/237/174 171/199/145 203/236/173 
f 172/200/146 204/237/174 235/272/91 205/238/91 
f 110/124/91 206/239/91 205/238/91 
f 1/1/1 207/240/1 236/273/1 
f 110/124/91 237/274/91 208/241/91 
f 238/275/198 209/242/175 208/241/91 237/274/91 
f 209/242/175 238/275/198 239/276/199 210/243/176 
f 210/243/176 239/276/199 240/277/200 211/244/177 
f 241/278/201 212/245/178 211/244/177 240/277/200 
f 242/279/202 213/246/179 212/245/178 241/278/201 
f 243/280/203 214/247/180 213/248/179 242/281/202 
f 214/249/180 243/282/203 244/283/204 215/250/181 
f 215/250/181 244/283/204 245/284/205 216/251/182 
f 246/285/206 217/252/183 216/251/182 245/284/205 
f 247/286/207 218/253/184 217/252/183 246/285/206 
f 236/273/1 207/240/1 218/253/184 247/286/207 
f 222/257/187 220/255/186 219/254/185 192/223/163 
f 220/255/186 222/257/187 248/287/91 221/256/91 
f 110/124/91 221/256/91 248/287/91 
f 222/257/187 193/224/164 223/258/91 248/287/91 
f 110/124/91 223/258/91 206/239/91 
f 1/1/1 249/288/1 224/259/1 
f 194/225/1 224/259/1 250/289/208 225/260/188 
f 195/226/165 225/260/188 251/290/209 226/261/189 
f 196/227/166 226/261/189 252/291/210 227/262/190 
f 253/292/211 228/263/191 197/228/167 227/262/190 
f 254/293/212 229/264/192 198/229/168 228/263/191 
f 199/265/169 229/294/192 255/295/213 230/266/193 
f 200/267/170 230/296/193 256/297/214 231/268/194 
f 201/234/171 231/268/194 257/298/215 232/269/195 
f 258/299/216 233/270/196 202/235/172 232/269/195 
f 259/300/217 234/271/197 203/236/173 233/270/196 
f 204/237/174 234/271/197 260/301/91 235/272/91 
f 110/124/91 205/238/91 235/272/91 
f 1/1/1 236/273/1 261/302/1 
f 110/124/91 262/303/91 237/274/91 
f 263/304/218 238/275/198 237/274/91 262/303/91 
f 238/275/198 263/304/218 264/305/219 239/276/199 
f 239/276/199 264/305/219 265/306/220 240/277/200 
f 266/307/221 241/278/201 240/277/200 265/306/220 
f 267/308/222 242/279/202 241/278/201 266/307/221 
f 268/309/223 243/280/203 242/281/202 267/310/222 
f 243/282/203 268/311/223 269/312/224 244/283/204 
f 244/283/204 269/312/224 270/313/225 245/284/205 
f 271/314/226 246/285/206 245/284/205 270/313/225 
f 272/315/227 247/286/207 246/285/206 271/314/226 
f 261/302/1 236/273/1 247/286/207 272/315/227 
f 110/124/91 248/287/91 223/258/91 
f 1/1/1 273/316/1 249/288/1 
f 224/259/1 249/288/1 274/317/228 250/289/208 
f 225/260/188 250/289/208 275/318/229 251/290/209 
f 226/261/189 251/290/209 276/319/230 252/291/210 
f 277/320/231 253/292/211 227/262/190 252/291/210 
f 278/321/232 254/293/212 228/263/191 253/292/211 
f 229/294/192 254/322/212 279/323/233 255/295/213 
f 230/296/193 255/324/213 280/325/234 256/297/214 
f 231/268/194 256/297/214 281/326/235 257/298/215 
f 282/327/236 258/299/216 232/269/195 257/298/215 
f 283/328/237 259/300/217 233/270/196 258/299/216 
f 234/271/197 259/300/217 284/329/91 260/301/91 
f 110/124/91 235/272/91 260/301/91 
f 1/1/1 261/302/1 285/330/1 
f 110/124/91 286/331/91 262/303/91 
f 287/332/238 263/304/218 262/303/91 286/331/91 
f 263/304/218 287/332/238 288/333/239 264/305/219 
f 264/305/219 288/333/239 289/334/240 265/306/220 
f 290/335/241 266/307/221 265/306/220 289/334/240 
f 291/336/242 267/308/222 266/307/221 290/335/241 
f 292/337/243 268/309/223 267/310/222 291/338/242 
f 268/311/223 292/339/243 293/340/244 269/312/224 
f 269/312/224 293/340/244 294/341/245 270/313/225 
f 295/342/246 271/314/226 270/313/225 294/341/245 
f 296/343/247 272/315/227 271/314/226 295/342/246 
f 285/330/1 261/302/1 272/315/227 296/343/247 
f 1/1/1 297/344/1 273/316/1 
f 249/288/1 273/316/1 298/345/248 274/317/228 
f 250/289/208 274/317/228 299/346/249 275/318/229 
f 251/290/209 275/318/229 300/347/250 276/319/230 
f 301/348/251 277/320/231 252/291/210 276/319/230 
f 302/349/252 278/321/232 253/292/211 277/320/231 
f 254/322/212 278/350/232 303/351/253 279/323/233 
f 255/324/213 279/352/233 304/353/254 280/325/234 
f 256/297/214 280/325/234 305/354/255 281/326/235 
f 306/355/256 282/327/236 257/298/215 281/326/235 
f 307/356/257 283/328/237 258/299/216 282/327/236 
f 259/300/217 283/328/237 308/357/91 284/329/91 
f 110/124/91 260/301/91 284/329/91 
f 1/1/1 285/330/1 309/358/1 
f 110/124/91 310/359/91 286/331/91 
f 311/360/258 287/332/238 286/331/91 310/359/91 
f 287/332/238 311/360/258 312/361/259 288/333/239 
f 288/333/239 312/361/259 313/362/260 289/334/240 
f 314/363/261 290/335/241 289/334/240 313/362/260 
f 315/364/262 291/336/242 290/335/241 314/363/261 
f 316/365/263 292/337/243 291/338/242 315/366/262 
f 292/339/243 316/367/263 317/368/264 293/340/244 
f 293/340/244 317/368/264 318/369/265 294/341/245 
f 319/370/266 295/342/246 294/341/245 318/369/265 
f 320/371/267 296/343/247 295/342/246 319/370/266 
f 309/358/1 285/330/1 296/343/247 320/371/267 
f 1/1/1 321/372/1 297/344/1 
f 273/316/1 297/344/1 322/373/268 298/345/248 
f 274/317/228 298/345/248 323/374/269 299/346/249 
f 275/318/229 299/346/249 324/375/270 300/347/250 
f 325/376/271 301/348/251 276/319/230 300/347/250 
f 326/377/272 302/349/252 277/320/231 301/348/251 
f 278/350/232 302/378/252 327/379/273 303/351/253 
f 279/352/233 303/380/253 328/381/274 304/353/254 
f 280/325/234 304/353/254 329/382/275 305/354/255 
f 330/383/276 306/355/256 281/326/235 305/354/255 
f 331/384/277 307/356/257 282/327/236 306/355/256 
f 283/328/237 307/356/257 332/385/91 308/357/91 
f 110/124/91 284/329/91 308/357/91 
f 1/1/1 309/358/1 321/372/1 
f 110/124/91 333/386/91 310/359/91 
f 334/387/278 311/360/258 310/359/91 333/386/91 
f 311/360/258 334/387/278 335/388/279 312/361/259 
f 312/361/259 335/388/279 336/389/280 313/362/260 
f 337/390/281 314/363/261 313/362/260 336/389/280 
f 338/391/282 315/364/262 314/363/261 337/390/281 
f 339/392/283 316/365/263 315/366/262 338/393/282 
f 316/367/263 339/394/283 340/395/284 317/368/264 
f 317/368/264 340/395/284 341/396/285 318/369/265 
f 342/397/286 319/370/266 318/369/265 341/396/285 
f 343/398/287 320/371/267 319/370/266 342/397/286 
f 321/372/1 309/358/1 320/371/267 343/398/287 
f 297/344/1 321/372/1 343/398/287 322/373/268 
f 298/345/248 322/373/268 344/399/288 323/374/269 
f 299/346/249 323/374/269 345/400/289 324/375/270 
f 346/401/290 325/376/271 300/347/250 324/375/270 
f 347/402/291 326/377/272 301/348/251 325/376/271 
f 302/403/252 326/404/272 348/405/292 327/406/273 
f 303/380/253 327/407/273 349/408/293 328/381/274 
f 304/353/254 328/381/274 350/409/294 329/382/275 
f 351/410/295 330/383/276 305/354/255 329/382/275 
f 352/411/296 331/384/277 306/355/256 330/383/276 
f 307/356/257 331/384/277 353/412/91 332/385/91 
f 110/124/91 308/357/91 332/385/91 
f 110/124/91 354/413/91 333/386/91 
f 355/414/297 334/387/278 333/386/91 354/413/91 
f 334/387/278 355/414/297 356/415/298 335/388/279 
f 335/388/279 356/415/298 357/416/299 336/389/280 
f 358/417/300 337/390/281 336/389/280 357/416/299 
f 359/418/301 338/391/282 337/390/281 358/417/300 
f 360/419/302 339/392/283 338/393/282 359/420/301 
f 339/394/283 360/421/302 361/422/303 340/395/284 
f 340/395/284 361/422/303 362/423/304 341/396/285 
f 344/399/288 342/397/286 341/396/285 362/423/304 
f 322/373/268 343/398/287 342/397/286 344/399/288 
f 323/374/269 344/399/288 362/423/304 345/400/289 
f 363/424/305 346/401/290 324/375/270 345/400/289 
f 364/425/306 347/402/291 325/376/271 346/401/290 
f 326/404/272 347/426/291 365/427/307 348/405/292 
f 327/407/273 348/428/292 366/429/308 349/408/293 
f 328/381/274 349/408/293 367/430/309 350/409/294 
f 368/431/310 351/410/295 329/382/275 350/409/294 
f 369/432/311 352/411/296 330/383/276 351/410/295 
f 331/384/277 352/411/296 370/433/91 353/412/91 
f 110/124/91 332/385/91 353/412/91 
f 110/124/91 371/434/91 354/413/91 
f 372/435/312 355/414/297 354/413/91 371/434/91 
f 355/414/297 372/435/312 373/436/313 356/415/298 
f 356/415/298 373/436/313 374/437/314 357/416/299 
f 375/438/315 358/417/300 357/416/299 374/437/314 
f 376/439/316 359/418/301 358/417/300 375/438/315 
f 377/440/317 360/419/302 359/420/301 376/441/316 
f 360/421/302 377/442/317 363/424/305 361/422/303 
f 361/422/303 363/424/305 345/400/289 362/423/304 
f 377/442/317 364/425/306 346/401/290 363/424/305 
f 347/426/291 364/443/306 378/444/318 365/427/307 
f 348/428/292 365/445/307 379/446/319 366/429/308 
f 349/408/293 366/429/308 380/447/320 367/430/309 
f 381/448/321 368/431/310 350/409/294 367/430/309 
f 382/449/322 369/432/311 351/410/295 368/431/310 
f 352/411/296 369/432/311 383/450/91 370/433/91 
f 110/124/91 353/412/91 370/433/91 
f 110/124/91 384/451/91 371/434/91 
f 385/452/323 372/435/312 371/434/91 384/451/91 
f 372/435/312 385/452/323 386/453/324 373/436/313 
f 373/436/313 386/453/324 387/454/325 374/437/314 
f 388/455/326 375/438/315 374/437/314 387/454/325 
f 378/456/318 376/439/316 375/438/315 388/455/326 
f 364/443/306 377/440/317 376/441/316 378/444/318 
f 365/445/307 378/456/318 388/455/326 379/446/319 
f 366/429/308 379/446/319 389/457/327 380/447/320 
f 390/458/328 381/448/321 367/430/309 380/447/320 
f 391/459/329 382/449/322 368/431/310 381/448/321 
f 369/432/311 382/449/322 392/460/91 383/450/91 
f 110/124/91 370/433/91 383/450/91 
f 110/124/91 393/461/91 384/451/91 
f 394/462/330 385/452/323 384/451/91 393/461/91 
f 385/452/323 394/462/330 395/463/331 386/453/324 
f 386/453/324 395/463/331 389/457/327 387/454/325 
f 379/446/319 388/455/326 387/454/325 389/457/327 
f 395/463/331 390/458/328 380/447/320 389/457/327 
f 396/464/332 391/459/329 381/448/321 390/458/328 
f 382/449/322 391/459/329 397/465/91 392/460/91 
f 110/124/91 383/450/91 392/460/91 
f 110/124/91 398/466/91 393/461/91 
f 396/464/332 394/462/330 393/461/91 398/466/91 
f 394/462/330 396/464/332 390/458/328 395/463/331 
f 391/459/329 396/464/332 398/466/91 397/465/91 
f 110/124/91 392/460/91 397/465/91 
f 110/124/91 397/465/91 398/466/91 
s 2
f 127/467/333 1/468/333 110/469/333 130/470/333 
f 150/471/333 127/467/333 130/470/333 132/472/333 
s 1
f 109/473/334 110/469/334 1/468/334 58/474/334 
f 107/475/335 109/473/334 58/474/334 74/476/335 
f 91/477/334 93/478/335 95/479/334 97/480/334 99/481/334 101/482/334 103/483/334 105/484/335 107/475/335 74/476/335 
s 2
f 134/485/333 136/486/333 138/487/336 140/488/333 142/489/333 144/490/333 146/491/336 148/492/336 150/471/333 132/472/333 
# 358 polygons - 64 triangles

#
# object Object001
#

v  -0.0000 0.0001 36.1234
v  8.3825 0.0001 59.1544
v  4.2559 0.0001 60.2601
v  12.2545 0.0001 57.3489
v  15.2562 0.0001 78.0397
v  7.7458 0.0001 80.0521
v  -0.0000 31.2104 36.1234
v  4.2559 31.2104 60.2601
v  8.3825 31.2104 59.1544
v  15.7541 0.0001 54.8984
v  22.3031 0.0001 74.7537
v  15.9164 0.2748 79.8534
v  8.0809 0.2748 81.9529
v  7.7458 31.2104 80.0521
v  15.2562 31.2104 78.0397
v  12.2545 31.2104 57.3489
v  15.7541 31.2104 54.8984
v  18.7750 31.2104 51.8775
v  18.7750 0.0001 51.8775
v  28.6724 0.0001 70.2939
v  23.2682 0.2748 76.4252
v  16.3879 1.0988 81.1489
v  8.3203 1.0988 83.3106
v  8.5118 4.3950 84.3968
v  16.7651 4.3950 82.1853
v  16.7651 26.8155 82.1853
v  8.5118 26.8155 84.3968
v  16.6708 28.7382 81.9262
v  8.4640 28.7382 84.1253
v  16.3879 30.1117 81.1489
v  8.3203 30.1117 83.3106
v  15.9164 30.9357 79.8534
v  8.0809 30.9357 81.9529
v  16.6708 2.4722 81.9262
v  8.4640 2.4722 84.1253
v  22.3031 31.2104 74.7537
v  28.6724 31.2104 70.2939
v  34.1704 31.2104 64.7959
v  34.1704 0.0001 64.7959
v  29.9130 0.2748 71.7725
v  23.9575 1.0988 77.6192
v  24.5090 4.3950 78.5743
v  24.5090 26.8155 78.5743
v  24.3711 28.7382 78.3355
v  23.9575 30.1117 77.6192
v  23.2682 30.9357 76.4252
v  24.3711 2.4722 78.3355
v  29.9130 30.9357 71.7725
v  35.6490 30.9357 66.0365
v  31.5082 4.3950 73.6735
v  37.5500 4.3950 67.6316
v  37.5500 26.8155 67.6316
v  31.5082 26.8155 73.6735
v  31.3309 2.4722 73.4622
v  37.3388 2.4722 67.4544
v  30.7992 1.0988 72.8286
v  36.7051 1.0988 66.9227
v  35.6490 0.2748 66.0365
v  30.7992 30.1117 72.8286
v  36.7051 30.1117 66.9227
v  31.3309 28.7382 73.4622
v  37.3388 28.7382 67.4544
# 62 vertices

vn 0.0000 -1.0000 -0.0000
vn 0.0255 -0.9972 0.0700
vn 0.0194 -0.9972 0.0723
vn 0.0000 1.0000 -0.0000
vn 0.0373 -0.9972 0.0645
vn 0.1174 -0.9393 0.3225
vn 0.0891 -0.9388 0.3326
vn 0.0194 0.9972 0.0723
vn 0.0255 0.9972 0.0700
vn 0.0479 -0.9972 0.0571
vn 0.1716 -0.9393 0.2972
vn 0.2437 -0.7016 0.6696
vn 0.1848 -0.7003 0.6896
vn 0.2582 -0.0706 0.9635
vn 0.3412 -0.0709 0.9373
vn 0.3412 0.0709 0.9373
vn 0.2582 0.0706 0.9635
vn 0.3226 0.3322 0.8863
vn 0.2442 0.3311 0.9115
vn 0.2437 0.7016 0.6696
vn 0.1848 0.7003 0.6896
vn 0.1174 0.9393 0.3225
vn 0.0891 0.9388 0.3326
vn 0.3226 -0.3322 0.8863
vn 0.2442 -0.3311 0.9115
vn 0.0373 0.9972 0.0645
vn 0.0479 0.9972 0.0571
vn 0.0529 0.9972 0.0529
vn 0.0529 -0.9972 0.0529
vn 0.2206 -0.9393 0.2629
vn 0.3563 -0.7016 0.6171
vn 0.4987 -0.0709 0.8638
vn 0.4987 0.0709 0.8638
vn 0.4716 0.3322 0.8168
vn 0.3563 0.7016 0.6171
vn 0.1716 0.9393 0.2972
vn 0.4716 -0.3322 0.8168
vn 0.2206 0.9393 0.2629
vn 0.2435 0.9388 0.2435
vn 0.6412 -0.0709 0.7641
vn 0.7053 -0.0706 0.7053
vn 0.7053 0.0706 0.7053
vn 0.6412 0.0709 0.7641
vn 0.6063 -0.3322 0.7225
vn 0.6672 -0.3311 0.6672
vn 0.4580 -0.7016 0.5458
vn 0.5048 -0.7003 0.5048
vn 0.2435 -0.9388 0.2435
vn 0.4580 0.7016 0.5458
vn 0.5048 0.7003 0.5048
vn 0.6063 0.3322 0.7225
vn 0.6672 0.3311 0.6672
vn -0.9848 0.0000 0.1736
vn -0.9848 -0.0000 0.1736
vn 0.6428 0.0000 -0.7660
vn -0.9848 -0.0000 0.1737
vn -0.9848 0.0000 0.1737
vn 0.6428 -0.0000 -0.7660
# 58 vertex normals

vt 0.2500 0.2485 0.0000
vt 0.2701 0.1341 0.0000
vt 0.2897 0.1393 0.0000
vt 0.2500 0.1323 0.0000
vt 0.2866 0.0405 0.0000
vt 0.3222 0.0501 0.0000
vt 0.2495 0.7508 0.0000
vt 0.2098 0.6416 0.0000
vt 0.2294 0.6364 0.0000
vt 0.2299 0.1341 0.0000
vt 0.2500 0.0373 0.0000
vt 0.2881 0.0319 0.0000
vt 0.3252 0.0417 0.0000
vt 0.1773 0.5523 0.0000
vt 0.2129 0.5427 0.0000
vt 0.2495 0.6346 0.0000
vt 0.2696 0.6364 0.0000
vt 0.2892 0.6416 0.0000
vt 0.2103 0.1393 0.0000
vt 0.2134 0.0405 0.0000
vt 0.2500 0.0284 0.0000
vt 0.2892 0.0249 0.0000
vt 0.3274 0.0347 0.0000
vt 0.6090 0.5880 0.0000
vt 0.6090 0.6292 0.0000
vt 0.5009 0.6292 0.0000
vt 0.5009 0.5880 0.0000
vt 0.1682 0.5208 0.0000
vt 0.2081 0.5111 0.0000
vt 0.2094 0.5200 0.0000
vt 0.1703 0.5297 0.0000
vt 0.2103 0.5272 0.0000
vt 0.1721 0.5369 0.0000
vt 0.2114 0.5342 0.0000
vt 0.1743 0.5440 0.0000
vt 0.2901 0.0177 0.0000
vt 0.3292 0.0275 0.0000
vt 0.2915 0.0088 0.0000
vt 0.3313 0.0185 0.0000
vt 0.2495 0.5395 0.0000
vt 0.2861 0.5427 0.0000
vt 0.3217 0.5523 0.0000
vt 0.1778 0.0501 0.0000
vt 0.2119 0.0319 0.0000
vt 0.2500 0.0213 0.0000
vt 0.6090 0.6704 0.0000
vt 0.5009 0.6704 0.0000
vt 0.2495 0.5075 0.0000
vt 0.2495 0.5165 0.0000
vt 0.2495 0.5236 0.0000
vt 0.2495 0.5307 0.0000
vt 0.2500 0.0143 0.0000
vt 0.2500 0.0053 0.0000
vt 0.2876 0.5342 0.0000
vt 0.3247 0.5440 0.0000
vt 0.6090 0.7116 0.0000
vt 0.6090 0.7528 0.0000
vt 0.5009 0.7528 0.0000
vt 0.5009 0.7116 0.0000
vt 0.1687 0.0185 0.0000
vt 0.2086 0.0088 0.0000
vt 0.2099 0.0177 0.0000
vt 0.1708 0.0275 0.0000
vt 0.2108 0.0249 0.0000
vt 0.1726 0.0347 0.0000
vt 0.1748 0.0417 0.0000
vt 0.2887 0.5272 0.0000
vt 0.3270 0.5369 0.0000
vt 0.2896 0.5200 0.0000
vt 0.3287 0.5297 0.0000
vt 0.2910 0.5111 0.0000
vt 0.3308 0.5208 0.0000
vt 0.7388 0.8518 0.0000
vt 0.7388 0.7335 0.0000
vt 0.8893 0.7335 0.0000
vt 0.8893 0.8518 0.0000
vt 0.7388 0.9487 0.0000
vt 0.8893 0.9487 0.0000
vt 0.8893 0.6153 0.0000
vt 0.7388 0.6153 0.0000
vt 0.8893 0.5184 0.0000
vt 0.7388 0.5184 0.0000
vt 0.8880 0.9580 0.0000
vt 0.8840 0.9647 0.0000
vt 0.8774 0.9686 0.0000
vt 0.8681 0.9700 0.0000
vt 0.7600 0.9700 0.0000
vt 0.7507 0.9686 0.0000
vt 0.7441 0.9647 0.0000
vt 0.7401 0.9580 0.0000
vt 0.8774 0.4985 0.0000
vt 0.8840 0.5024 0.0000
vt 0.8880 0.5091 0.0000
vt 0.7401 0.5091 0.0000
vt 0.7441 0.5024 0.0000
vt 0.7507 0.4985 0.0000
vt 0.7600 0.4971 0.0000
vt 0.8681 0.4971 0.0000
# 98 texture coords

o Object001
g Object001
usemtl cheese
s 4
f 399/493/337 400/494/337 401/495/337 
f 399/493/337 402/496/337 400/494/337 
f 401/495/337 400/494/337 403/497/338 404/498/339 
f 405/499/340 406/500/340 407/501/340 
f 399/493/337 408/502/337 402/496/337 
f 400/494/337 402/496/337 409/503/341 403/497/338 
f 404/498/339 403/497/338 410/504/342 411/505/343 
f 412/506/344 413/507/345 407/501/340 406/500/340 
f 405/499/340 407/501/340 414/508/340 
f 405/499/340 415/509/340 416/510/340 
f 399/493/337 417/511/337 408/502/337 
f 402/496/337 408/502/337 418/512/346 409/503/341 
f 403/497/338 409/503/341 419/513/347 410/504/342 
f 411/505/343 410/504/342 420/514/348 421/515/349 
f 422/516/350 423/517/351 424/518/352 425/519/353 
f 425/520/353 424/521/352 426/522/354 427/523/355 
f 427/523/355 426/522/354 428/524/356 429/525/357 
f 430/526/358 431/527/359 429/525/357 428/524/356 
f 413/507/345 412/506/344 431/527/359 430/526/358 
f 432/528/360 433/529/361 421/515/349 420/514/348 
f 423/530/351 422/531/350 433/529/361 432/528/360 
f 413/507/345 434/532/362 414/508/340 407/501/340 
f 405/499/340 414/508/340 415/509/340 
f 435/533/363 436/534/364 416/510/340 415/509/340 
f 408/502/337 417/511/337 437/535/365 418/512/346 
f 409/503/341 418/512/346 438/536/366 419/513/347 
f 410/504/342 419/513/347 439/537/367 420/514/348 
f 423/517/351 440/538/368 441/539/369 424/518/352 
f 424/521/352 441/540/369 442/541/370 426/522/354 
f 426/522/354 442/541/370 443/542/371 428/524/356 
f 444/543/372 430/526/358 428/524/356 443/542/371 
f 434/532/362 413/507/345 430/526/358 444/543/372 
f 445/544/373 432/528/360 420/514/348 439/537/367 
f 440/545/368 423/530/351 432/528/360 445/544/373 
f 434/532/362 435/533/363 415/509/340 414/508/340 
f 436/534/364 435/533/363 446/546/374 447/547/375 
f 448/548/376 449/549/377 450/550/378 451/551/379 
f 449/552/377 448/553/376 452/554/380 453/555/381 
f 453/555/381 452/554/380 454/556/382 455/557/383 
f 438/536/366 456/558/384 455/557/383 454/556/382 
f 418/512/346 437/535/365 456/558/384 438/536/366 
f 447/547/375 446/546/374 457/559/385 458/560/386 
f 459/561/387 460/562/388 458/560/386 457/559/385 
f 451/563/379 450/564/378 460/562/388 459/561/387 
f 419/513/347 438/536/366 454/556/382 439/537/367 
f 440/538/368 448/548/376 451/551/379 441/539/369 
f 441/540/369 451/563/379 459/561/387 442/541/370 
f 442/541/370 459/561/387 457/559/385 443/542/371 
f 446/546/374 444/543/372 443/542/371 457/559/385 
f 435/533/363 434/532/362 444/543/372 446/546/374 
f 452/554/380 445/544/373 439/537/367 454/556/382 
f 448/553/376 440/545/368 445/544/373 452/554/380 
s 1
f 406/565/389 405/566/389 399/567/389 401/568/389 
f 412/569/390 406/565/389 401/568/389 404/570/390 
s 2
f 417/571/391 399/567/391 405/566/391 416/572/391 
f 437/573/391 417/571/391 416/572/391 436/574/391 
s 1
f 411/575/390 421/576/389 433/577/392 422/578/389 425/579/389 427/580/393 429/581/390 431/582/389 412/569/390 404/570/390 
s 2
f 453/583/394 455/584/391 456/585/394 437/573/391 436/574/391 447/586/394 458/587/394 460/588/391 450/589/391 449/590/391 
# 50 polygons - 8 triangles

